<svg version="1" xmlns="http://www.w3.org/2000/svg" width="704" height="704" viewBox="0 0 528.000000 528.000000"><path d="M246.5 10.9c-2 8.1-2.4 22.2-1.2 34.6 1.6 15.2 1.5 18.6-.9 23.3-1.5 2.9-1.8 4.4-1 4.7 9.3 2.6 12.8 5.2 23.6 17.4 3 3.5 8.9 8.8 13 12 7.1 5.4 20.6 12.8 21.5 11.9.4-.3-.5-1.5-6.4-8.4-1-1.2-3.1-4.3-4.7-7-2.1-3.6-2.4-4.6-1.2-4.1 2.8 1 9.8 2.8 13.1 3.3 1.8.2 4.6.7 6.2.9 4.4.7 16.1.5 20.9-.3.4-.1-1.7-1.5-4.8-3.1-18.4-9.7-35.7-26.5-38.7-37.4-2.5-9.5-.2-21.2 7-35.6 1.8-3.4 3.1-6.5 2.8-6.7-.5-.6-13.6 6.3-17.7 9.3-1.9 1.4-5.6 4.7-8.3 7.2l-4.8 4.6-2.7-3c-3.4-3.8-9.7-16.3-10.8-21.5-.2-.8-.9-3.3-1.7-5.5l-1.4-3.9-1.8 7.3zM29.3 122.4c-4.4 1.5-8.8 5.5-11.2 10.2-2.8 5.4-3.1 8.3-1.5 13.2 2.6 7.4 2.4 7.3 34.9 25.2 3.3 1.8 8.3 4.5 11 6 2.8 1.5 9.3 5.1 14.5 8 5.2 2.9 12 6.6 15 8.3 3 1.6 7.2 4.1 9.2 5.4 2.1 1.2 4.1 2.3 4.4 2.3.4 0 2.9 1.3 5.6 3 2.6 1.6 4.9 3 5.1 3 .1 0 .2-1.3.3-3 .1-1.6.9-4.1 1.8-5.5 1.4-2.1 2.3-2.5 4.3-2 1.4.3 3 1.1 3.7 1.8 1.6 1.7 1.1 15.7-.8 25.7-1.8 8.8-3.8 22.6-4.3 29.1l-.5 7.7 6.4 6.3c12.3 12.2 14.8 14.2 16.3 12.9.8-.6 1.2-1.7 1-2.3-.5-1.5-4.5-23.8-5.1-28.7-.2-1.9-.7-4.6-1-6-.3-1.3-.8-4-1-6-.2-1.9-.7-4.6-1-6-.3-1.4-.8-4.5-1-7-.4-3.8-.3-4.3.8-3 .7.9 6.7 5.8 13.3 10.9 6.6 5.2 12.5 9.9 13 10.5.6.7 2 1.9 3.3 2.8 1.2.8 3.9 3.1 6 5s4.8 4 5.9 4.7c1.2.6 2.7 1.7 3.5 2.3 2.3 2.3 11.6 6.8 17 8.4 3 .9 10.2 1.7 16.8 1.9 13.6.4 16.4.8 29.5 4.5 4.2 1.2 8 2 8.5 1.8.5-.2-.8-3.7-2.8-7.9-2-4.1-4.8-10-6.1-13-2.6-5.8-7.7-16.8-16.2-35.4-1.3-2.8-2.4-5.2-2.4-5.5-.1-.3-1.2-2.8-2.4-5.5-7-15.7-8.1-16.6-18.2-14-3.5.9-7.1 1.8-7.9 2-.8.2-6.4 1.7-12.5 3.3-6 1.7-12.3 3.3-14 3.6-4 .8-6.2 1.3-11.5 2.7-2.5.6-5.2 1.2-6 1.4-6 1.2-10.8 2.9-12.5 4.5-1.1.9-3.1 2.3-4.4 3-2 1-2.6.9-4.3-.7-1.9-1.9-2.6-5.9-2.7-14.6-.1-4.8-.2-4.9-26-25.2-11.2-8.8-20.9-16.5-21.5-17-.6-.6-3.3-2.8-6.1-5-2.7-2.2-5.5-4.5-6.1-5-.6-.6-2.8-2.4-4.9-4-2.1-1.7-4.5-3.7-5.4-4.5-.9-.8-3.5-2.8-5.6-4.4-2.2-1.7-4.7-3.7-5.5-4.5-5.2-5.3-12.9-7.7-18.7-5.7zm120.2 89c6 1.5 6.5 1.8 5.5 3.6-1.3 2.5-1.3 5 .1 2.7 1.1-1.9 3.4-2.3 4.4-.7.4.6.1 2.6-.5 4.6-1.2 3.4-1.2 3.4-2.9 1.6-.9-1.1-3.7-3-6.3-4.1-3-1.5-4.7-3-5-4.4-.6-3.3.2-4.9 2.1-4.2.9.4 2.1.8 2.6.9z"/><path d="M148.2 151.1c-4.2.9-10.2 5.6-12.2 9.5-1.4 2.8-1.9 11.8-.7 13 .3.4 1.9-.3 3.4-1.5C151.6 162 157 158 157.5 158c.8 0 4.5-3.4 4.5-4.1 0-2-9.1-3.9-13.8-2.8zM173.1 167.5c-.6 2.5-1.3 4.5-1.5 4.5-.2 0-3.2-1-6.7-2.3-3.5-1.3-7-2.3-7.6-2.1-.7.1-1.7.2-2.3.3-2.7.3-4.7 10.6-2.8 14.4.8 1.6.3 1.7-6.2 1.1-6.3-.5-7-.3-7 1.3 0 1 1.3 3.3 3 5.1 1.6 1.8 3 3.6 3.2 4 .2.4 1.5 1.8 3 3.1l2.6 2.3 5.4-2.8c2.9-1.6 5.5-3.1 5.8-3.4.3-.3 2.5-1.6 5-2.9 8.1-4.2 14-8.3 14-9.6 0-2.3-4-13.9-5.4-15.8-1.2-1.6-1.5-1.3-2.5 2.8zM208 166.7c-3.8 1.1-10.6 5.1-13.8 8-.7.7-1.9 1.3-2.5 1.3-1.6 0 4.6 5.8 10.7 9.9 4.1 2.8 5.7 3.4 10.5 3.4 4.5 0 16.9-3 20.3-5 .8-.4-1.8-3.1-9.8-10-7.9-6.8-11.7-8.7-15.4-7.6zM398.7 213.6c-.1.1-3.6.5-7.7.7-19.1 1.3-30.4 6.3-62.5 27.8-11 7.4-20.4 13.6-21 13.9-1.1.5-18.5 11.9-34.9 22.8l-9.8 6.6 2.3 1.7c1.3.9 3.4 2.5 4.6 3.6 1.2 1 8.6 7 16.6 13.3 11.7 9.3 14.3 11.8 13.3 12.9-.6.8-1.1 1.7-1 2 0 .3-1.2 3.4-2.7 6.9-5.5 12.2-9.3 25.3-9.3 31.9 0 5.1.5 7 3.1 11.1l3.1 5-5.7-1.4c-11-2.7-13.5-3.9-14.7-7.4-1.1-3.2-1-10.6 0-20 1.8-15.4 1.8-19.5-.2-21.3-1.5-1.3-22.3-8.2-27.7-9.1-.5-.1-1.4-.4-2-.7-3.6-2.1-12-4-15.3-3.4-3.1.5-23.1 12.3-27.9 16.5-.7.5-2.4 1.5-3.8 2.2-1.4.6-2.5 1.4-2.5 1.8 0 .4-1.1 1.2-2.5 1.8-1.4.7-3.1 1.7-3.8 2.3-1.4 1.2-39.3 26.1-55.7 36.6-6.3 4-12.5 8.1-13.8 9.1-1.3.9-3.7 2.5-5.4 3.4-4.1 2.3-7.8 5.5-7.8 6.8 0 1.5 3.6 9 22.6 47.9 9 18.3 16.4 33.7 16.4 34.1 0 2.2 4.4 1.8 12.1-1 4.6-1.7 10.2-3.7 12.4-4.4 2.2-.8 14.8-5.4 28-10.3 13.2-5 25.8-9.6 28-10.3 2.2-.7 4.5-1.5 5-1.9.6-.3 1.2-.6 1.5-.6.9-.1 14.4-4.6 16.5-5.5 1.1-.5 4-1.5 6.5-2.3 2.5-.9 15.8-5.4 29.5-10.2 13.8-4.7 29.5-10.1 35-12 20-6.8 56.2-19.4 66-23 5.5-2 10.5-3.8 11-3.9.6-.2 1.9-.7 3-1.1 1.1-.4 5.4-2.1 9.5-3.7 16.1-6.3 33.1-14.3 41-19.3 9.6-6.1 23.9-22.5 36.6-42.1 4.2-6.5 8.5-13.1 9.5-14.6 1.1-1.5 1.9-3 1.9-3.3 0-.3 1.8-3.6 4.1-7.3 5.8-9.5 24.3-47.6 26.4-54.3 2.8-8.9 1.1-13.9-5.3-15.4-.9-.3-3.7-1-6.2-1.6-2.5-.6-5.4-1.3-6.5-1.5-1.1-.2-4-.8-6.5-1.3s-6.1-1.2-8-1.5c-3.3-.5-5.4-.8-14.7-2.1-6.6-1-13.9-1.7-30.3-3-1.9-.2-12-.6-22.5-1-10.4-.4-20.9-.8-23.3-.9-2.3-.1-4.3-.1-4.5 0zM74 345.6c0 .7.3 1.4.8 1.6.4.1 5.4 7.4 11.2 16.1 5.7 8.7 11.2 16.5 12.3 17.2 2.3 1.6 5.2.9 9.3-2.2 1.7-1.2 3.6-2.3 4.2-2.3.7 0 1.2-.4 1.2-.8 0-.5 1.5-1.6 3.3-2.6 10.2-5.4 29.3-17.9 31.9-20.8 2.8-3.2.8-5.5-5.4-6.3-2.9-.4-19.6-.9-37-1-24.9-.1-31.8.1-31.8 1.1zM76.7 433.6c-.1.1-3.2.4-6.8.8-23.7 2.2-43.3 18.4-64.6 53.5-6.7 11.2-6.8 11.1 19.2 11.6 31.3.5 52.7-6.1 66.2-20.5 1.8-1.9 3.3-4.1 3.3-4.8 0-.6.4-1.2.8-1.2 1 0 10.5-18.6 12.8-25 3.1-8.8 2.8-10.9-1.6-11.7-7.9-1.4-28.5-3.3-29.3-2.7zM189 465.7c-13.6 5.3-13.9 5.4-21 8.3-5.6 2.3-7.1 2.9-12.8 5-1.8.7-3.9 2.1-4.6 3.2-1.6 2.2-.8 6 3.9 18.3 1.4 3.8 3.3 8.8 4 11 .8 2.2 2.3 6.4 3.3 9.3l1.9 5.3 2.8-3.8c1.6-2.1 3.2-4 3.5-4.3 1.2-1 24.7-33.7 30.3-42.2 5.5-8.2 7.2-13.7 4.5-13.9-.7 0-2-.2-2.8-.3-.8-.2-6.7 1.7-13 4.1z"/></svg>